<mxfile host="app.diagrams.net" modified="2023-03-24T22:01:18.791Z" agent="Mozilla/5.0 (Windows NT 10.0; Win64; x64) AppleWebKit/537.36 (KHTML, like Gecko) Chrome/106.0.0.0 Safari/537.36" version="21.1.1" etag="r59c7ufKUArbRfrPeqN7" type="github">
  <diagram name="PÃ¡gina-1" id="z7y48pP76O_biSikpQAu">
    <mxGraphModel>
      <root>
        <mxCell id="0" />
        <mxCell id="1" parent="0" />
      </root>
    </mxGraphModel>
  </diagram>
</mxfile>
